External Loads File
version=1
nRows=69
nColumns=13
Range=5.000000e-03-10 seconds
endheader
time 	forceRightX 	forceRightY 	forceRightZ 	pointRightX 	pointRightY 	pointRightZ 	forceLeftX 	forceLeftY 	forceLeftZ 	pointLeftX 	pointLeftY 	pointLeftZ 		
7.505000 156.670069 477.333432 -0.000000 0.270082 0.180613 -0.120696 -33.577579 -75.781084 -0.000000 0.132528 0.431329 -0.361372
7.510000 168.709761 472.195476 -0.000000 0.261756 0.174191 -0.120748 -53.409697 -92.719195 -0.000000 0.140911 0.438563 -0.359493
7.515000 180.403974 471.379663 -0.000000 0.253491 0.167878 -0.120095 -73.131433 -108.171573 -0.000000 0.149924 0.445456 -0.360475
7.520000 191.847558 474.458429 -0.000000 0.244607 0.162258 -0.119817 -91.630789 -121.033793 -0.000000 0.158989 0.451735 -0.361866
7.525000 202.552492 480.901444 -0.000000 0.235507 0.157595 -0.119312 -107.687101 -130.439007 -0.000000 0.167875 0.457492 -0.361371
7.530000 214.084036 488.996838 -0.000000 0.226113 0.152387 -0.119061 -120.840790 -135.288201 -0.000000 0.177041 0.462583 -0.361512
7.535000 225.494566 497.816483 -0.000000 0.216503 0.148885 -0.119409 -130.275628 -135.411444 -0.000000 0.186268 0.466807 -0.361806
7.540000 236.689375 505.903826 -0.000000 0.207048 0.146076 -0.119516 -135.801147 -130.999324 -0.000000 0.195618 0.470574 -0.361953
7.545000 247.701238 511.644871 -0.000000 0.197476 0.143611 -0.119407 -137.674236 -122.698908 -0.000000 0.204996 0.473654 -0.361931
7.550000 258.223331 513.592926 -0.000000 0.187851 0.141931 -0.119316 -136.404220 -111.540917 -0.000000 0.214477 0.476125 -0.362318
7.555000 267.436228 510.689271 -0.000000 0.178321 0.140930 -0.119386 -132.643022 -98.702310 -0.000000 0.223957 0.478038 -0.362714
7.560000 274.614721 502.099999 -0.000000 0.168845 0.140484 -0.119519 -127.195070 -85.111942 -0.000000 0.233231 0.479256 -0.363040
7.565000 279.188703 487.290340 -0.000000 0.159618 0.140818 -0.119696 -120.828965 -71.346947 -0.000000 0.242414 0.479910 -0.363319
7.570000 280.617684 466.156959 -0.000000 0.150625 0.141772 -0.119848 -114.114787 -57.689620 -0.000000 0.251316 0.479596 -0.364107
7.575000 277.560325 439.592650 -0.000000 0.142135 0.143241 -0.119918 -107.314543 -44.420523 -0.000000 0.259677 0.479244 -0.364341
7.580000 270.355946 408.003425 -0.000000 0.134034 0.145323 -0.120183 -100.745362 -31.359134 -0.000000 0.267451 0.478282 -0.364587
7.585000 259.123710 372.337317 -0.000000 0.126631 0.147964 -0.120054 -94.623610 -18.472612 -0.000000 0.274814 0.476676 -0.364850
7.590000 244.480360 333.494273 -0.000000 0.119703 0.151106 -0.120041 -89.225093 -5.722985 -0.000000 0.281588 0.474133 -0.365108
7.595000 226.942762 292.644917 -0.000000 0.113336 0.154623 -0.120000 -84.856316 6.927894 -0.000000 0.287854 0.470761 -0.365355
7.600000 207.050300 251.143650 -0.000000 0.107744 0.158658 -0.119885 -81.858272 19.764379 -0.000000 0.293699 0.466982 -0.365639
7.605000 185.888448 210.008664 -0.000000 0.102486 0.163184 -0.119698 -80.541947 33.614344 -0.000000 0.299104 0.462618 -0.365889
7.610000 164.221345 170.459646 -0.000000 0.097158 0.168009 -0.120310 -81.214245 49.539542 -0.000000 0.304026 0.457760 -0.366118
7.615000 142.394783 133.993802 -0.000000 0.093129 0.173323 -0.120078 -84.392032 68.482019 -0.000000 0.308507 0.452334 -0.366158
7.620000 121.788825 100.785687 -0.000000 0.088998 0.178984 -0.119993 -90.191781 91.856969 -0.000000 0.312663 0.445641 -0.366239
7.625000 102.507193 71.959387 -0.000000 0.085200 0.185133 -0.119945 -99.335212 120.002827 -0.000000 0.316433 0.439700 -0.366150
7.630000 85.388542 47.258162 -0.000000 0.081768 0.191765 -0.119995 -111.747695 153.493974 -0.000000 0.319625 0.432480 -0.366116
7.635000 70.579019 26.630381 -0.000000 0.078618 0.198770 -0.119971 -127.517174 191.911964 -0.000000 0.321987 0.424382 -0.366006
7.640000 58.098628 9.477690 -0.000000 0.075861 0.206049 -0.120142 -145.637114 234.718100 -0.000000 0.325159 0.415545 -0.366155
7.645000 47.621998 -4.567314 -0.000000 0.073466 0.213820 -0.120159 -165.636721 280.243075 -0.000000 0.327643 0.406005 -0.366392
7.650000 38.734668 -16.169339 -0.000000 0.071593 0.221834 -0.119937 -185.469027 327.258815 -0.000000 0.330053 0.394986 -0.366628
7.655000 30.995305 -25.606189 -0.000000 0.069944 0.230196 -0.119891 -204.968466 373.199880 -0.000000 0.332070 0.384371 -0.367115
7.660000 23.917569 -33.280501 -0.000000 0.068927 0.238704 -0.119739 -222.667935 416.320207 -0.000000 0.333691 0.373523 -0.367316
7.665000 17.031894 -39.402062 -0.000000 0.068419 0.247372 -0.119675 -237.423335 455.016435 -0.000000 0.334954 0.362609 -0.367462
7.670000 9.972786 -44.011752 -0.000000 0.068168 0.256107 -0.119292 -248.673666 488.010219 -0.000000 0.335881 0.351777 -0.367538
7.675000 2.491145 -47.040413 -0.000000 0.068532 0.264981 -0.119228 -256.020530 514.785428 -0.000000 0.336366 0.340796 -0.367570
7.680000 -5.438669 -48.330172 -0.000000 0.068620 0.273959 -0.120923 -259.787665 535.318720 -0.000000 0.336431 0.330001 -0.367554
7.685000 -13.616480 -47.713278 -0.000000 0.069917 0.283103 -0.120506 -260.383272 550.257550 -0.000000 0.336025 0.319138 -0.367451
7.690000 -21.651042 -45.082254 -0.000000 0.071670 0.292424 -0.120608 -257.640411 560.972713 -0.000000 0.335171 0.308242 -0.367440
7.695000 -28.879852 -40.497080 -0.000000 0.073935 0.301840 -0.120679 -252.185623 568.597410 -0.000000 0.333740 0.297520 -0.367352
7.700000 -34.642571 -34.152547 -0.000000 0.076626 0.311407 -0.120827 -243.142483 574.802160 -0.000000 0.331895 0.286722 -0.367871
7.705000 -38.221320 -26.571715 -0.000000 0.079740 0.321088 -0.120932 -230.961315 580.374204 -0.000000 0.329266 0.276176 -0.367203
7.710000 -39.204842 -18.497071 -0.000000 0.083331 0.330999 -0.121155 -215.028101 586.214669 -0.000000 0.326034 0.265868 -0.367072
7.715000 -37.568860 -10.900945 -0.000000 0.087172 0.340829 -0.121193 -195.557123 592.571598 -0.000000 0.322083 0.255644 -0.366898
7.720000 -33.822360 -4.781952 -0.000000 0.091673 0.350688 -0.121202 -173.196628 599.402236 -0.000000 0.317518 0.246011 -0.366729
7.725000 -28.963376 -0.852878 -0.000000 0.096437 0.360786 -0.121624 -146.673780 607.149941 -0.000000 0.312308 0.236368 -0.366590
7.730000 -24.243278 0.336191 -0.000000 0.101986 0.371014 -0.121806 -117.325116 615.403664 -0.000000 0.306571 0.227221 -0.366373
7.735000 -20.937484 -1.356747 -0.000000 0.107876 0.380693 -0.122226 -87.345036 623.734645 -0.000000 0.300355 0.218452 -0.366253
7.740000 -20.050392 -5.526714 -0.000000 0.114274 0.390445 -0.122798 -55.215851 632.315948 -0.000000 0.293663 0.209752 -0.366069
7.745000 -22.089837 -11.653602 -0.000000 0.121022 0.399668 -0.123637 -24.392520 640.657507 -0.000000 0.286491 0.202027 -0.365862
7.750000 -27.315911 -18.639847 -0.000000 0.128391 0.408731 -0.124206 14.717914 648.654775 -0.000000 0.278949 0.189358 -0.365589
7.755000 -34.681333 -26.843334 -0.000000 0.136191 0.417340 -0.124848 38.424590 656.435876 -0.000000 0.270971 0.187120 -0.365374
7.760000 -44.077840 -35.001724 -0.000000 0.144197 0.425625 -0.125795 66.763746 663.646399 -0.000000 0.262816 0.181300 -0.360795
7.765000 -54.688656 -42.880994 -0.000000 0.152610 0.433389 -0.126488 95.738941 669.849264 -0.000000 0.254116 0.174390 -0.364843
7.770000 -64.669166 -51.575580 -0.000000 0.161139 0.440488 -0.127268 110.231606 676.968520 -0.000000 0.250309 0.168882 -0.360683
7.775000 -75.960002 -57.437273 -0.000000 0.170033 0.446924 -0.127450 145.814090 678.337625 -0.000000 0.236219 0.163993 -0.364560
7.780000 -85.332714 -63.512791 -0.000000 0.178875 0.452666 -0.128134 167.751199 679.079532 -0.000000 0.226993 0.160083 -0.364439
7.785000 -93.326383 -68.132737 -0.000000 0.188185 0.457643 -0.128062 188.938666 675.880984 -0.000000 0.217628 0.156199 -0.364366
7.790000 -99.587193 -70.862708 -0.000000 0.197607 0.461917 -0.128320 209.037131 667.788067 -0.000000 0.208238 0.143069 -0.364276
7.795000 -103.463262 -71.856051 -0.000000 0.206867 0.465353 -0.128472 224.084554 655.261693 -0.000000 0.198805 0.140543 -0.364212
7.800000 -105.136588 -70.377789 -0.000000 0.216172 0.468017 -0.128689 236.839748 636.899559 -0.000000 0.189338 0.138717 -0.364152
7.805000 -104.623603 -66.294273 -0.000000 0.225869 0.469982 -0.128643 247.162939 612.293698 -0.000000 0.180137 0.137574 -0.363934
7.810000 -102.369957 -59.228968 -0.000000 0.235535 0.471274 -0.128461 257.698246 579.972381 -0.000000 0.170919 0.146881 -0.363896
7.815000 -97.664983 -51.289838 -0.000000 0.244196 0.471918 -0.128457 258.294485 544.366537 -0.000000 0.161813 0.141182 -0.363835
7.820000 -91.947039 -41.191644 -0.000000 0.254183 0.471863 -0.128036 258.823537 501.370752 -0.000000 0.153054 0.141962 -0.363656
7.825000 -85.114717 -30.556675 -0.000000 0.262420 0.471202 -0.127995 252.804043 454.823353 -0.000000 0.144629 0.143580 -0.363537
7.830000 -77.894533 -19.270358 -0.000000 0.270726 0.469892 -0.127987 242.861991 404.603386 -0.000000 0.136614 0.145726 -0.363388
7.835000 -70.781505 -7.002668 -0.000000 0.278942 0.467890 -0.127557 231.770881 350.464210 -0.000000 0.129082 0.154760 -0.363198
7.840000 -63.963375 5.087322 -0.000000 0.286450 0.465198 -0.127344 213.932744 297.885431 -0.000000 0.122032 0.158118 -0.362907
7.845000 -57.907191 17.923057 -0.000000 0.293361 0.461724 -0.127014 193.409647 246.487087 -0.000000 0.115321 0.162030 -0.362901
